<?xml version="1.0" encoding="utf-8"?>
<!-- Generator: Adobe Illustrator 25.0.1, SVG Export Plug-In . SVG Version: 6.00 Build 0)  -->
<svg version="1.1" id="Livello_1" xmlns="http://www.w3.org/2000/svg" xmlns:xlink="http://www.w3.org/1999/xlink" x="0px" y="0px"
	 viewBox="0 0 595.3 841.9" style="enable-background:new 0 0 595.3 841.9;" xml:space="preserve">
<style type="text/css">
	.st0{fill:#E84E1B;}
</style>
<path class="st0" d="M562,668.3c0,11,0,21.7,0,32.5c-175.7,0-351.2,0-527,0c0-10.8,0-21.5,0-32.5c0.8,0,1.6-0.1,2.4-0.1
	c26.4,0,52.8,0,79.2,0c1.9,0,2.6-0.5,2.8-2.4c0.8-7.8,1.7-15.6,2.6-23.3c1-8.8,2.1-17.5,3.1-26.3c0.9-7.7,1.7-15.4,2.6-23.2
	c0.9-7.7,1.8-15.4,2.7-23.1c0.9-7.7,1.7-15.4,2.6-23.2c0.9-7.7,1.8-15.3,2.7-23c0.9-7.8,1.8-15.6,2.7-23.3
	c0.9-7.7,1.8-15.4,2.7-23.2c0.8-6.7,1.5-13.4,2.3-20.1c0.9-7.8,1.8-15.6,2.7-23.3c0.9-7.7,1.8-15.3,2.6-23
	c0.9-7.9,1.8-15.8,2.7-23.7c0.9-7.7,1.7-15.3,2.6-23c0.9-7.8,1.8-15.6,2.7-23.3c0.9-7.7,1.8-15.4,2.6-23.2
	c0.9-7.7,1.8-15.4,2.7-23.2c0.9-7.5,1.7-15.1,2.6-22.8c-15.8,0-31.5,0-47.4,0c0-44,0-87.8,0-131.8c32.8,0,65.8,0,99,0
	c0,10.7,0,21.4,0,32.2c11.1,0,21.9,0,32.9,0c0-10.7,0-21.4,0-32.2c32.8,0,65.5,0,98.3,0c0,10.7,0,21.3,0,32.2c11.1,0,22,0,33,0
	c0-0.8,0.1-1.7,0.1-2.5c0-9.2,0-18.3,0-27.5c0-2.4,0-2.4,2.3-2.4c31.6,0,63.2,0,94.8,0c1.7,0,2.4,0.3,2.1,2.2
	c-0.2,1.7-0.1,3.4-0.1,5.2c0,40.6,0,81.3,0,121.9c0,0.8,0,1.5,0,2.5c-15.8,0-31.6,0-47.5,0c0.3,3.2,0.6,6.1,1,9.1
	c0.9,7.8,1.8,15.7,2.7,23.5c0.9,7.8,1.8,15.6,2.7,23.3c0.9,7.7,1.7,15.3,2.6,23c0.9,7.8,1.8,15.7,2.7,23.5
	c0.9,7.6,1.7,15.2,2.6,22.8c0.9,7.9,1.8,15.8,2.7,23.7c0.9,7.7,1.7,15.3,2.6,23c0.9,7.8,1.8,15.6,2.7,23.3
	c0.9,7.7,1.8,15.4,2.7,23.2c0.9,7.8,1.8,15.6,2.7,23.3c0.9,7.7,1.8,15.3,2.6,23c0.9,7.8,1.8,15.7,2.7,23.5
	c0.9,7.7,1.8,15.4,2.6,23.2c0.9,7.7,1.8,15.4,2.7,23.2c0.8,6.7,1.5,13.3,2.3,20c0.9,7.9,1.8,15.8,2.8,23.7
	c0.6,5.5,1.3,11.1,1.8,16.6c0.1,1.6,0.7,2,2.3,2c26.6,0,53.1,0,79.7,0C560.3,668.3,561,668.3,562,668.3z M265.8,667.9
	c0.9,0,1.6,0,2.3,0c19.5,0,39.1,0,58.6,0c4.6,0,4.6,0,4.6-4.6c0-20.4,0-40.8,0-61.1c0-1.7,0-3.3-0.3-5c-3.2-18.9-19.5-29.8-36.5-28
	c-16,1.7-29,15.7-29.1,31.9c-0.1,20.7,0,41.5,0,62.2C265.4,664.8,265.7,666.3,265.8,667.9z M331.2,403.6c0.1-0.6,0.1-1.1,0.1-1.7
	c0-10.5,0.1-20.9,0-31.4c-0.1-9.3-3.6-17.3-10.4-23.8c-7.9-7.6-17.4-10.2-28.1-8.4c-10.5,1.8-18.8,7.1-23.8,16.8
	c-3.2,6.1-3.6,12.8-3.6,19.4c-0.1,9,0.2,17.9,0.3,26.9c0,0.7,0.1,1.4,0.2,2.1C287.8,403.6,309.5,403.6,331.2,403.6z"/>
</svg>
