<?xml version="1.0" encoding="utf-8"?>
<!-- Generator: Adobe Illustrator 25.0.1, SVG Export Plug-In . SVG Version: 6.00 Build 0)  -->
<svg version="1.1" id="Livello_1" xmlns="http://www.w3.org/2000/svg" xmlns:xlink="http://www.w3.org/1999/xlink" x="0px" y="0px"
	 viewBox="0 0 595.28 841.89" style="enable-background:new 0 0 595.28 841.89;" xml:space="preserve">
<style type="text/css">
	.st0{fill:#312783;}
</style>
<g>
	<path class="st0" d="M303.13,115.83c10.02,2.34,19.65,5.39,27.77,12.23c13.27,11.18,19.39,25.54,19.62,42.61
		c0.13,9.87,0.17,19.76-0.05,29.63c-0.08,3.84,0.94,6.49,4,9.11c28.96,24.8,38.74,62.15,26.18,98.22c-0.75,2.14-0.84,5.17,0.1,7.15
		c23.64,49.47,47.45,98.86,71.25,148.25c0.32,0.66,0.72,1.27,2.02,3.52c6.85-11.84,13.19-22.65,19.37-33.55
		c1.65-2.91,2.71-6.14,4.25-9.11c4.8-9.25,14.53-12.87,23.45-8.83c9.06,4.1,12.78,14.22,8.57,23.95
		c-8.81,20.42-20.01,39.44-34.59,56.26c-3.81,4.39-4.13,7.58-1.55,12.83c16.37,33.27,32.29,66.76,48.38,100.16
		c10.12,21.01,8.3,40.78-5.73,59.53c-1.15,1.54-1.31,4.79-0.52,6.63c3.1,7.24,6.88,14.2,10.21,21.34c4.86,10.4,1.59,20.78-7.77,25.2
		c-9.16,4.32-19.03,0.48-24.12-9.55c-3.39-6.68-6.68-13.42-9.78-20.24c-1.38-3.04-3-4.34-6.65-4.27
		c-22.6,0.42-39.86-9.15-50.02-29.43c-14.58-29.09-28.42-58.55-42.59-87.84c-0.93-1.93-1.95-3.82-2.46-4.82
		c-22.49,5.17-44.47,10.22-67.49,15.5c0,4.2,0.07,9.86-0.02,15.52c-0.18,11.07-7.58,18.95-17.72,18.97
		c-10.15,0.02-17.61-7.85-17.8-18.9c-0.09-5.52-0.02-11.05-0.02-15.62c-22.64-5.18-44.79-10.25-67.63-15.48
		c-3.16,6.54-6.86,14.13-10.53,21.75c-10.52,21.86-21.23,43.63-31.48,65.61c-10.76,23.07-28.12,35.35-54,34.97
		c-1.71-0.03-4.15,1.86-5.04,3.52c-3.67,6.75-6.78,13.8-10.26,20.66c-5.22,10.29-15.34,14.11-24.6,9.42
		c-9.04-4.58-12.11-14.69-7.38-24.87c3.41-7.33,7.23-14.48,10.44-21.89c0.73-1.68,0.45-4.68-0.63-6.12
		c-14.21-18.92-15.9-38.79-5.58-60.03c16.37-33.71,32.46-67.55,48.86-101.25c1.89-3.88,1.88-6.46-1.08-9.85
		c-14.64-16.78-25.96-35.7-35.07-55.98c-4.9-10.89-1.82-21.23,7.78-25.65c9.65-4.43,18.97-0.01,24.62,10.76
		c6.31,12.02,13.28,23.71,20.02,35.5c0.75,1.32,1.91,2.4,3.21,4.01c1.02-1.97,1.84-3.46,2.58-4.99
		c23.01-47.8,45.98-95.63,69.09-143.38c1.86-3.84,1.99-7.05,0.54-11.1c-11.97-33.56-1.77-72.13,25.32-95.33
		c4.01-3.43,5.45-6.91,5.37-12.07c-0.18-11.83-0.59-23.78,0.69-35.5c2.69-24.64,20.01-42.11,44.44-46.34
		c0.75-0.13,1.44-0.57,2.15-0.86C295.23,115.83,299.18,115.83,303.13,115.83z M324.88,362.66c0.72,1.57,1.52,3.36,2.37,5.13
		c22.68,47.09,45.37,94.18,68.04,141.27c20.62,42.83,41.18,85.69,61.88,128.48c1.69,3.49,3.74,7.1,6.52,9.7
		c6.23,5.83,15.58,5.73,22.29,0.46c7.17-5.63,8.58-14.18,3.84-24.02c-43.97-91.35-87.95-182.69-131.93-274.03
		c-0.81-1.68-1.71-3.31-2.18-4.22C345.17,351.31,335.24,356.87,324.88,362.66z M238.67,345.39c-0.38,0.67-1.02,1.65-1.52,2.69
		c-44.3,92.05-88.58,184.11-132.85,276.17c-0.68,1.41-1.25,2.9-1.72,4.4c-2.27,7.3,0.28,14.98,6.39,19.43
		c6.39,4.66,14.83,4.94,20.86-0.21c3.02-2.58,5.43-6.25,7.18-9.88c43.54-90.23,86.95-180.52,130.37-270.8
		c0.83-1.72,1.51-3.51,1.97-4.61C259.03,356.8,249.11,351.23,238.67,345.39z M297.17,387.28c-23.42,48.68-46.19,96.02-69.12,143.69
		c16.87,6.44,33.53,10.39,51.38,11.69c0-5.58-0.06-10.49,0.01-15.39c0.18-11.11,7.5-18.98,17.64-19.05
		c10.16-0.07,17.67,7.79,17.88,18.81c0.09,5.08,0.02,10.17,0.02,17.1c17.72-4.1,34.4-7.97,51.89-12.01
		C343.32,483.19,320.59,435.96,297.17,387.28z M350.48,277.9c0.84-28.7-22.74-53.13-52.26-54.14c-28.65-0.98-53.13,22.52-54.28,52.1
		c-1.12,28.77,22.92,53.7,52.54,54.46C325.16,331.07,349.61,307.33,350.48,277.9z M314.79,188.8c0-7.2,0.53-14.7-0.14-22.09
		c-0.79-8.82-8.78-15.3-17.5-15.28c-8.72,0.03-16.65,6.56-17.41,15.38c-0.64,7.39-0.13,14.88-0.13,21.98
		C291.34,188.8,302.68,188.8,314.79,188.8z"/>
	<path class="st0" d="M314.94,276.88c0.09,9.67-7.9,17.8-17.58,17.89c-9.67,0.09-17.8-7.9-17.89-17.58
		c-0.09-9.67,7.9-17.8,17.58-17.89C306.71,259.21,314.85,267.21,314.94,276.88z"/>
</g>
</svg>
