<?xml version="1.0" encoding="utf-8"?>
<!-- Generator: Adobe Illustrator 25.0.1, SVG Export Plug-In . SVG Version: 6.00 Build 0)  -->
<svg version="1.1" id="Livello_1" xmlns="http://www.w3.org/2000/svg" xmlns:xlink="http://www.w3.org/1999/xlink" x="0px" y="0px"
	 viewBox="0 0 595.28 841.89" style="enable-background:new 0 0 595.28 841.89;" xml:space="preserve">
<style type="text/css">
	.st0{fill:#F9B233;}
</style>
<g>
	<path class="st0" d="M108.63,571.53c2.38,0,4.36-0.03,6.33,0c8.22,0.13,11.15,3.04,11.19,11.24c0.04,9.11,0.01,18.23,0.01,27.34
		c0,7.97,0,15.94,0,24.01c63.52,0,126.41,0,189.73,0c0-8.3,0-16.1,0-24.47c-2.03,4.67-5.23,7.02-10.19,6.98
		c-11.3-0.09-22.6,0.05-33.9-0.06c-6.64-0.06-9.98-3.51-10.05-10.24c-0.09-8.93-0.19-17.87,0.04-26.79
		c0.37-14.33,12.08-25.82,26.38-26.2c13.99-0.37,26.24,10.28,27.38,24.43c0.63,7.79,0.25,15.66,0.37,23.49
		c0.02,1.44,0.27,2.88,0.56,5.7c7.35-21.43,20.5-34.2,42.12-35.14c24.85-1.08,39.73,12.54,47.59,36.99c0-10.25-0.07-18.8,0.02-27.36
		c0.16-15.85,11.66-27.89,26.77-28.12c15-0.23,26.97,11.57,27.48,27.41c0.27,8.38,0.17,16.77,0.03,25.15
		c-0.12,7.41-3.46,10.64-10.82,10.69c-9.66,0.07-19.32-0.13-28.98,0.08c-5.53,0.12-10.74-0.06-14.26-5.7c0,8.13,0,15.55,0,23.18
		c21.12,0,41.91,0,63.09,0c0-2.26,0-4.06,0-5.85c0-14.76-0.01-29.53,0-44.29c0.01-9.81,2.51-12.37,12.13-12.48
		c1.76-0.02,3.52,0,5.83,0c0-8,0-15.26,0-22.52c0-7.41,0-14.82,0-22.37c-126.77,0-252.77,0-378.84,0
		C108.63,541.72,108.63,556.36,108.63,571.53z M198.53,579.26c0.68-14.69,12.81-26.01,27.18-25.92c14.4,0.09,26.13,11.26,26.9,26.22
		c0.47,9.08,0.28,18.2,0.07,27.29c-0.15,6.32-3.73,9.52-10.07,9.75c-0.18,0.01-0.36,0-0.55,0c-5.46,0-10.92,0-16.38,0
		c-5.82,0-11.65,0.11-17.47-0.03c-6.02-0.15-9.61-3.5-9.74-9.47C198.27,597.82,198.1,588.52,198.53,579.26z M135.31,579.59
		c0.8-15.19,12.86-26.47,27.4-26.25c14.9,0.23,26.49,12.09,26.74,27.53c0.14,8.37,0.1,16.74,0.01,25.11
		c-0.08,7.26-3.48,10.53-10.84,10.61c-5.46,0.06-10.92,0.01-16.38,0.01c-5.64,0-11.29,0.08-16.92-0.03
		c-6.42-0.13-9.92-3.3-10.08-9.7C135.01,597.79,134.83,588.66,135.31,579.59z"/>
	<path class="st0" d="M338.73,508.27c47.58,0,95.15-0.09,142.72,0.13c4.7,0.02,6.22-1.52,7.07-5.78c2.54-12.84,5.47-25.61,8.4-39.08
		c-132.99,0-265.37,0-398.17,0c3.29,15.17,6.49,29.87,9.71,44.73c2.81,0,4.99,0,7.16,0C189.99,508.27,264.36,508.27,338.73,508.27z"
		/>
	<path class="st0" d="M180.49,438.45c0-18.41-0.04-36.81,0.03-55.22c0.03-6.65,3.68-10.65,9.19-10.47
		c5.34,0.17,8.64,4.03,8.67,10.47c0.06,14.4,0.02,28.79,0.02,43.19c0,5.97,0,11.94,0,18.19c3.16,0,5.78,0,9.04,0
		c0-2.17,0-4.12,0-6.07c0-17.31,0-34.63,0-51.94c0-1.46-0.06-2.92,0.05-4.37c0.46-5.86,4.11-9.59,9.21-9.48
		c5.1,0.11,8.81,3.97,8.85,9.82c0.11,18.77,0.04,37.54,0.05,56.31c0,1.92,0,3.84,0,5.69c6.38,0,11.96,0,17.55,0
		c0-51.04,0-101.75,0-152.45c-27.12,0-53.81,0-80.44,0c0,51.1,0,101.82,0,152.48c6.02,0,11.61,0,17.78,0
		C180.49,442.38,180.49,440.42,180.49,438.45z M202.74,300.51c17.52-0.09,31.65,13.84,31.74,31.31
		c0.09,17.47-13.88,31.73-31.27,31.92c-17.21,0.19-31.7-14.1-31.87-31.45C171.18,315,185.39,300.6,202.74,300.51z"/>
	<path class="st0" d="M202.92,171.21c-13.79,34.48-27.16,67.93-40.67,101.71c27.44,0,53.96,0,81.32,0
		C230.1,239.21,216.83,206.01,202.92,171.21z"/>
	<path class="st0" d="M108.2,597.23c0-2.48,0-4.96,0-7.47c-24.46,0-48.05,0-71.98,0c0,14.82,0,29.32,0,44.04
		c0.68,0.33,0.99,0.62,1.31,0.62c22.38,0.08,44.77,0.09,67.15,0.23c3.62,0.02,3.53-2.15,3.53-4.66
		C108.18,619.07,108.2,608.15,108.2,597.23z"/>
	<path class="st0" d="M487.75,589.82c0,14.87,0,29.36,0,44.31c24.25,0,47.96,0,71.71,0c0-15.01,0-29.51,0-44.31
		C535.44,589.82,511.74,589.82,487.75,589.82z"/>
	<path class="st0" d="M89.65,517.57c-11.96,0-23.54,0-35.42,0c0,17.84,0,35.4,0,53.18c11.97,0,23.66,0,35.42,0
		C89.65,552.81,89.65,535.26,89.65,517.57z"/>
	<path class="st0" d="M541.47,517.71c-12.13,0-23.84,0-35.43,0c0,17.99,0,35.56,0,53.09c12.01,0,23.59,0,35.43,0
		C541.47,553.03,541.47,535.6,541.47,517.71z"/>
	<path class="st0" d="M73.39,431.07c-0.26-1.23-0.67-2.43-1-3.64c-0.3-0.07-0.59-0.15-0.89-0.22c-5.06,23.67-10.13,47.34-15.25,71.3
		c10.85,0,20.97,0,31.49,0C82.91,475.77,78.16,453.42,73.39,431.07z"/>
	<path class="st0" d="M524.99,430.89c-0.26-1.23-0.7-2.42-1.49-5.09c-4.98,23.07-9.62,44.53-14.24,65.99
		c-0.45,2.11-0.77,4.24-1.2,6.65c10.5,0,20.75,0,31.32,0C534.53,475.63,529.77,453.26,524.99,430.89z"/>
	<path class="st0" d="M334.71,634.01c5.58,0,11.16,0,16.81,0c0-14.29,0-28.28,0-42.51C333.66,599.04,332.32,613.71,334.71,634.01z"
		/>
	<path class="st0" d="M370.36,592.04c0,13.91,0,27.82,0,42c5.86,0,11.43,0,17.27,0C390.98,610.94,384.01,594.33,370.36,592.04z"/>
</g>
</svg>
