<?xml version="1.0" encoding="utf-8"?>
<!-- Generator: Adobe Illustrator 25.0.1, SVG Export Plug-In . SVG Version: 6.00 Build 0)  -->
<svg version="1.1" id="Livello_1" xmlns="http://www.w3.org/2000/svg" xmlns:xlink="http://www.w3.org/1999/xlink" x="0px" y="0px"
	 viewBox="0 0 595.3 841.9" style="enable-background:new 0 0 595.3 841.9;" xml:space="preserve">
<style type="text/css">
	.st0{fill:#009EE2;}
</style>
<g>
	<g>
		<path class="st0" d="M205.8,365.6c-1,0.1-2.1,0.2-3.1,0.2c-0.1,0.1-0.2,0.1-0.3,0.2c-0.1,0.1-0.5,0.3-0.8,0.6
			c1.3-0.3,2.6-0.5,3.9-0.8C205.6,365.7,205.7,365.7,205.8,365.6z"/>
		<path class="st0" d="M551.2,555.5L551.2,555.5l-26.6,0v0.1h-2.1c-1.6-18.9-6-36.8-14.7-54.3c6.5-3.8,12.8-7.4,19-11.1
			c1.5-0.9,3.1-1.7,4.5-2.7c4.5-3.1,5.8-8,3.2-12.3c-2.5-4.2-7.6-5.6-12.4-2.9c-7.6,4.2-15.1,8.6-23.1,13.2
			c-11-15.7-24-29.2-40.1-39.9c4.3-7.4,8.4-14.5,12.4-21.6c3.5-6.1,2.7-11.4-2.1-14.1c-4.9-2.8-9.7-1-13.3,5.1
			c-4.1,7.1-8.2,14.2-12.6,21.7c-17.2-8.4-35.2-13.1-54.3-14.7v-20.9c0,0,0,0,0,0v-4.3h0c-0.2-4.9-4.3-8.8-9.2-8.8
			c-5,0-9,3.9-9.2,8.8h0v24.6c-9.3,1.8-18.7,3-27.7,5.4c-9,2.4-17.7,6.1-26.9,9.3c-4-6.9-8.2-14.2-12.4-21.4
			c-3.4-5.8-8.2-7.5-13-4.9c-4.7,2.6-5.7,8-2.5,13.7c4.1,7.3,8.3,14.5,12.7,22c-15.8,10.8-29,23.9-39.9,40
			c-6.2-3.6-12.2-7-18.2-10.4c-1.8-1-3.6-2.2-5.5-3.1c-4.7-2.2-9.5-0.9-11.9,3.2c-2.6,4.3-1.5,9.4,3.2,12.2
			c7.6,4.6,15.3,9,23.4,13.7c-8.3,17.3-13.3,35.3-14.6,54.4h-0.1v-0.1h-26.6v0c-4.9,0.2-8.8,4.3-8.8,9.2c0,5,3.9,9,8.8,9.2v0H236
			c3.4,14.9,6.6,29.2,10,44.2c-3.6,2.7-8.1,6-12.5,9.4c-8,6.1-7.8,12,0.6,17.7h5.2c6.9-5.1,13.7-10.1,20.6-15.2
			c9-6.6,16-6.6,24.9-0.2c15.9,11.5,30.9,11.5,46.7,0.1c9-6.5,16-6.5,24.9-0.1c15.7,11.5,30.9,11.5,46.7,0c8.9-6.5,16-6.5,24.9,0
			c15.5,11.3,30.9,11.4,46.3,0.2c9.6-6.9,16.2-6.9,25.7,0.1c6.7,5,13.4,9.9,20.2,14.9h5.2c8.5-5.9,8.6-11.6,0.2-18
			c-4.2-3.2-8.3-6.3-12-9c3.3-14.8,6.6-29.1,10-44.3h0.9v0.1h26.6v0c4.9-0.2,8.8-4.3,8.8-9.2C560,559.8,556.1,555.7,551.2,555.5z
			 M300.2,605.5c-13.2-27.1-13.1-54.2-0.2-81.1c13.6,13.7,27.1,27.2,40.5,40.6C327.4,578.2,314,591.7,300.2,605.5z M367.5,615.5
			c4-4,8.1-8,12.3-12.2c3.8,4.2,7.7,8.4,11.6,12.6C385.5,622.3,375.5,622.4,367.5,615.5z M379.8,582.6c-10,0-17.9-7.8-17.9-17.8
			c0-9.7,7.9-17.6,17.5-17.8c9.8-0.2,18.1,7.9,18.1,17.7C397.7,574.6,389.9,582.5,379.8,582.6z M379.4,525.7
			c-13.1-13.2-26.5-26.7-40.2-40.5c27-13.2,54-13.1,80.6-0.3C406.4,498.5,392.9,512.1,379.4,525.7z M459.7,604.9
			c-13.5-13.7-26.9-27.3-39.8-40.4c12.5-12.5,26.1-26,39.9-39.8C472.4,551.2,472.4,578.1,459.7,604.9z M496.8,607.9h-17.9
			c18.2-55.8,6.2-102.5-44.3-135.2c-36.8-23.8-85.6-20-120.3,6.9c-19.4,15-32.3,34.5-38.4,58.3c-6.1,23.8-4,47,5.6,69.9H263
			c-16-36.4-11.8-97.4,35-137.9c44.2-38.2,109.1-40.8,156.3-5.8C503.8,501,514.9,562.8,496.8,607.9z"/>
	</g>
	<g>
		<path class="st0" d="M192.8,284.3c1.6-1.2,3.2-2.8,5-3.7c40-20.1,80-40.1,120-60.1c13.1-6.5,26.1-13,39.2-19.7
			c9.4-4.8,18.8-4.9,28.2-0.2c53.4,26.7,106.8,53.5,160.2,80.3c1.6,0.8,2.7,2.3,4.1,3.4c-0.2,0.4-0.4,0.8-0.6,1.3
			c-118.3,0-236.6,0-354.9,0C193.6,285.2,193.2,284.7,192.8,284.3z"/>
		<path class="st0" d="M37,517.3c2.9-8.7,5.7-17.1,8.5-25.5c6.5-19.7,13.1-39.3,19.6-59c0.9-2.8,1.9-4.3,5.3-4.2
			c58.7,0.1,117.3,0.1,176,0.1c0.7,0,1.3,0.1,2.3,0.2c-6.1,7.3-12.1,14-17.6,21.2c-14.5,19.1-24.8,40.3-30.9,63.5
			c-0.8,2.9-1.7,4.3-5.1,4.2c-52-0.1-104-0.1-156-0.1C38.7,517.6,38.3,517.5,37,517.3z"/>
		<path class="st0" d="M229.4,304.1c94.7,0,188.9,0,283.6,0c0,42,0,84,0,126.5c-5.6-4.9-11.1-9.4-16.2-14.3
			c-1.1-1.1-1.1-3.7-1.1-5.7c-0.1-27.3,0-54.5,0-81.8c0-2,0-4.1,0-6.6c-23.6,0-47,0-70.9,0c0,19.2,0,38.6,0,58.4
			c-6.2-1.2-11.8-2.3-17.9-3.5c0-18.2,0-36.5,0-55.1c-23.8,0-47,0-70.9,0c0,19.2,0,38.6,0,58.4c-6.1,1.8-11.9,3.6-18.1,5.4
			c0-21.5,0-42.4,0-63.7c-23.7,0-47.1,0-71.1,0c0,29.4,0,58.7,0,88.4c-6.1,0-11.6,0-17.4,0C229.4,375.2,229.4,339.9,229.4,304.1z"/>
		<path class="st0" d="M211.5,621.9c-12.4,0-23.8,0-35.5,0c0-28.8,0-57.4,0-86.2c6.5,0,12.7,0,19.5,0
			C190,565.7,195.8,594.2,211.5,621.9z"/>
		<path class="st0" d="M300.1,340c0,17.2,0.1,34.1-0.1,50.9c0,1.4-1.5,3.2-2.8,4c-7.8,4.9-15.8,9.7-23.8,14.1
			c-2.4,1.3-5.4,1.5-8.5,2.3c0-24.4,0-47.7,0-71.4C276.3,340,287.8,340,300.1,340z"/>
		<path class="st0" d="M442.5,385.4c0-14.8,0-29.9,0-45.5c11.7,0,23.2,0,35.1,0c0,20.8,0,41.4,0,62.3
			C465.9,396.6,454.3,391.1,442.5,385.4z"/>
		<path class="st0" d="M68.6,621.9c-5.9,0-11.4,0-17.1,0c0-28.7,0-57.2,0-86c5.5,0,11.1,0,17.1,0C68.6,564.4,68.6,593,68.6,621.9z"
			/>
		<path class="st0" d="M353.7,376.7c0-12,0-24.2,0-36.8c11.5,0,23.1,0,35,0c0,11.6,0,23.2,0,34.8C377,375.4,365.5,376.1,353.7,376.7
			z"/>
	</g>
</g>
</svg>
