<?xml version="1.0" encoding="utf-8"?>
<!-- Generator: Adobe Illustrator 25.0.1, SVG Export Plug-In . SVG Version: 6.00 Build 0)  -->
<svg version="1.1" id="Livello_1" xmlns="http://www.w3.org/2000/svg" xmlns:xlink="http://www.w3.org/1999/xlink" x="0px" y="0px"
	 viewBox="0 0 595.28 841.89" style="enable-background:new 0 0 595.28 841.89;" xml:space="preserve">
<style type="text/css">
	.st0{fill:#95C11F;}
</style>
<g>
	<path class="st0" d="M453.95,314.05c-53.25-37.4-111.76-48.9-175.12-31.19c-3.26,0.91-5.44,0.48-7.96-1.79
		c-10.85-9.82-23.65-15.81-37.97-18.58c-2.38-0.46-4.78-0.79-7.6-1.25c0.1-8.77,0.38-17.07,0.18-25.37
		c-0.08-3.41,1.08-4.93,4.16-6.2c10.99-4.53,16.91-15.49,15.19-27.44c-1.66-11.51-11.08-21.11-22.76-21.49
		c-5.84-0.19-11.77,2.25-17.66,3.49c-2.35,2.35-4.7,4.7-7.05,7.05c-1.22,3.4-2.89,6.71-3.59,10.22
		c-2.37,11.96,3.81,23.64,15.15,28.34c3.23,1.34,4.04,3.01,3.96,6.24c-0.2,8.28-0.04,16.57-0.03,25.24
		c-19.83,1.92-36.84,9.45-50.6,23.53c-13.77,14.09-21.02,31.22-22.33,50.39c-10.12,0-20,0-30.16-0.01
		c-3.51-11.34-11.06-19.23-23.86-19.74c-5.34-0.21-10.78,2.2-16.17,3.42c-2.35,2.35-4.7,4.7-7.05,7.05
		c-0.21,0.63-0.33,1.29-0.63,1.87c-7.29,14.22-3.01,29.28,10.34,36.3c13.24,6.96,27.99,1.71,35.48-12.56
		c0.55-1.04,1.68-2.51,2.57-2.53c9.9-0.22,19.8-0.2,29.73-0.25c2.27,16.25,7.81,30.34,18.37,42.01c3.13,3.46,3.47,6.38,2.18,10.62
		c-9.19,30.34-10.31,61.16-4.15,92.15c9.91,49.87,34.59,91.25,73.47,123.86c44.52,37.34,95.86,55.02,154.04,49.73
		c50.75-4.61,92.91-26.71,124.32-67.14c33.37-42.95,43.85-92.2,34.97-145.29C533.45,395.51,502.91,348.43,453.95,314.05z
		 M171.35,293.65c23.49-24.16,68.2-26.47,88.79-4.14c-20.85,8.76-39.21,21.14-55.06,36.93c-15.85,15.79-28.37,34.07-37.18,54.89
		C146,362.41,148.01,317.67,171.35,293.65z M403.34,651.34c-40.37,8.61-79.46,3.92-116.77-13.13
		c-53.18-24.31-90.38-64.25-109.86-119.34c-18.16-51.37-15.29-101.95,11.84-150.02c5.66-10.02,13.19-18.97,20.32-29.07
		c2.08,2.08,3.34,3.34,4.6,4.6c71.09,71.09,142.18,142.16,213.2,213.32c1.88,1.88,3.63,4.5,4.14,7.03
		c6.24,31.23,0.03,59.35-21.67,83.33C407.71,649.63,405.43,650.89,403.34,651.34z M532.73,503.66c-0.18,3.31-1.07,6.6-1.08,9.9
		c-0.03,12.21-6.39,20.14-16.3,26.42c-22.67,14.34-47.02,18.28-73.04,12.72c-1.96-0.42-4.01-1.67-5.44-3.11
		c-71.83-71.72-143.59-143.49-215.35-215.28c-0.91-0.91-1.67-1.97-2.62-3.11c13.44-12.49,28.26-22.47,44.93-29.28
		c61.5-25.1,120.75-18.07,175.3,17.75C504.62,362.68,537.03,424.27,532.73,503.66z"/>
	<path class="st0" d="M287.16,526.61c-12.79-12.68-33.95-12.59-46.63,0.19c-12.8,12.9-12.73,33.72,0.15,46.53
		c12.86,12.78,33.94,12.76,46.59-0.04C299.91,560.5,299.86,539.21,287.16,526.61z"/>
	<path class="st0" d="M338.6,554.77c-12.87,12.71-13.04,33.65-0.38,46.62c12.48,12.79,33.81,12.9,46.64,0.25
		c12.89-12.71,13-33.62,0.24-46.53C372.3,542.15,351.53,542,338.6,554.77z"/>
	<path class="st0" d="M258.75,475.62c12.78-12.82,12.78-33.88,0.01-46.58c-12.72-12.65-34.09-12.62-46.69,0.07
		c-12.72,12.81-12.63,33.85,0.18,46.61C225.13,488.54,245.91,488.5,258.75,475.62z"/>
	<path class="st0" d="M432.62,460.75c-12.84,12.86-12.83,33.62,0.03,46.5c12.81,12.84,33.71,12.86,46.54,0.06
		c12.73-12.71,12.75-33.97,0.05-46.64C466.48,447.93,445.39,447.97,432.62,460.75z"/>
	<path class="st0" d="M352.23,380.49c12.76-12.68,12.85-33.86,0.18-46.64c-12.63-12.75-33.85-12.78-46.62-0.06
		c-12.86,12.8-12.9,33.61-0.1,46.51C318.47,393.16,339.39,393.24,352.23,380.49z"/>
	<path class="st0" d="M404.18,363.24c-12.5,13.67-11.93,34.2,1.3,46.46c13.3,12.32,34.12,11.95,46.2-0.83
		c12.55-13.28,12.29-34.5-0.57-46.67C437.68,349.49,416.32,349.96,404.18,363.24z"/>
</g>
</svg>
