<?xml version="1.0" encoding="utf-8"?>
<!-- Generator: Adobe Illustrator 25.0.1, SVG Export Plug-In . SVG Version: 6.00 Build 0)  -->
<svg version="1.1" id="Livello_1" xmlns="http://www.w3.org/2000/svg" xmlns:xlink="http://www.w3.org/1999/xlink" x="0px" y="0px"
	 viewBox="0 0 595.28 841.89" style="enable-background:new 0 0 595.28 841.89;" xml:space="preserve">
<style type="text/css">
	.st0{fill:#E94E1B;}
</style>
<g>
	<path class="st0" d="M286.57,414.75c-3,0-5.96,0-8.92,0c-64.58,0-129.16-0.08-193.74,0.13c-6.23,0.02-9-1.46-10.7-7.95
		c-7.9-30.1-12.44-60.6-12.74-91.71c-0.19-19.36-0.24-38.72,0.15-58.08c0.06-2.74,2.38-6.87,4.74-7.93
		c72.64-32.67,145.42-65.05,218.18-97.44c0.72-0.32,1.58-0.32,3.03-0.59C286.57,238.83,286.57,326.24,286.57,414.75z"/>
	<path class="st0" d="M305.96,150.32c16.81,7.46,32.89,14.55,48.94,21.71c56.61,25.26,113.18,50.61,169.87,75.68
		c5.29,2.34,7.38,5.01,7.3,10.98c-0.47,39.22,1.52,78.56-6.2,117.37c-2.21,11.09-4.78,22.12-7.83,33c-0.64,2.3-4.1,5.43-6.27,5.43
		c-67.86,0.24-135.72,0.14-203.58,0.07c-0.52,0-1.03-0.3-2.22-0.68C305.96,326.65,305.96,239.2,305.96,150.32z"/>
	<path class="st0" d="M286.76,691.58c-91.32-68.55-165.47-148.84-205.44-257.99c69.09,0,137.05,0,205.44,0
		C286.76,519.32,286.76,604.59,286.76,691.58z"/>
	<path class="st0" d="M305.82,433.38c68.35,0,135.91,0,205.13,0c-39.81,109.2-113.97,189.4-205.13,258.08
		C305.82,604.63,305.82,519.39,305.82,433.38z"/>
</g>
</svg>
