<?xml version="1.0" encoding="utf-8"?>
<!-- Generator: Adobe Illustrator 25.0.1, SVG Export Plug-In . SVG Version: 6.00 Build 0)  -->
<svg version="1.1" id="Livello_1" xmlns="http://www.w3.org/2000/svg" xmlns:xlink="http://www.w3.org/1999/xlink" x="0px" y="0px"
	 viewBox="0 0 595.28 841.89" style="enable-background:new 0 0 595.28 841.89;" xml:space="preserve">
<style type="text/css">
	.st0{fill:#006633;}
</style>
<g>
	<path class="st0" d="M155.97,180.84c2.75,1.48,3.65,3.78,3.78,6.88c0.58,13.08,11.5,23.91,24.57,24.63
		c0.44,0.02,0.87,0.02,1.31,0.05c3.26,0.21,5.45,2.28,5.48,5.2c0.04,3.01-2.2,5.2-5.62,5.32c-5.29,0.19-10.18,1.63-14.5,4.7
		c-7.08,5.03-10.85,11.95-11.33,20.63c-0.22,3.92-2.13,6.22-5.29,6.21c-3.16,0-5.1-2.29-5.27-6.22
		c-0.62-13.85-11.45-24.67-25.32-25.29c-3.88-0.17-6.18-2.18-6.13-5.36c0.04-3.08,2.29-5.03,6.01-5.21
		c14.08-0.66,24.87-11.39,25.4-25.45c0.11-2.9,1.42-4.73,3.75-6.09C153.87,180.84,154.92,180.84,155.97,180.84z"/>
	<path class="st0" d="M475.85,357.55c-2.75-1.47-3.65-3.77-3.79-6.87c-0.58-12.99-11.31-23.77-24.25-24.62
		c-0.61-0.04-1.22-0.03-1.83-0.07c-3.18-0.24-5.35-2.46-5.28-5.38c0.07-2.81,2.2-5,5.27-5.1c5.28-0.17,10.19-1.5,14.54-4.52
		c7.29-5.06,11.06-12.1,11.72-20.97c0.12-1.68,0.84-3.8,2.05-4.77c1.18-0.94,3.43-1.14,5.03-0.81c2.24,0.47,3.33,2.47,3.35,4.78
		c0.11,14.51,11.82,26.17,26.23,26.26c2.62,0.02,4.03,1.73,5.29,3.68c0,1.05,0,2.1,0,3.16c-1.48,2.75-3.77,3.66-6.86,3.79
		c-13.04,0.57-23.96,11.52-24.53,24.57c-0.13,3.1-1.04,5.4-3.78,6.88C477.95,357.55,476.9,357.55,475.85,357.55z"/>
	<path class="st0" d="M255.41,151.37c2.84,1.55,3.95,3.91,3.72,7.15c-0.2,2.77-0.04,5.56-0.04,8.63c2.91,0,5.59,0,8.27,0
		c4.96,0,7.5,1.81,7.45,5.32c-0.05,3.49-2.53,5.2-7.58,5.2c-2.61,0-5.22,0-8.15,0c0,3.3,0.02,6.42,0,9.55
		c-0.03,3.81-2.08,6.22-5.25,6.21c-3.18,0-5.21-2.4-5.24-6.22c-0.02-3.06,0-6.11,0-9.54c-3.25,0-6.36,0.02-9.47,0
		c-3.84-0.02-6.22-2.02-6.26-5.2c-0.04-3.19,2.36-5.28,6.15-5.31c3.06-0.02,6.11,0,9.58,0c0-2.93,0.16-5.79-0.04-8.63
		c-0.23-3.24,0.87-5.61,3.72-7.15C253.31,151.37,254.36,151.37,255.41,151.37z"/>
	<path class="st0" d="M367.74,370.19c-2.84-1.55-3.96-3.91-3.72-7.15c0.2-2.77,0.04-5.57,0.04-8.63c-3.08,0-5.94,0-8.8,0
		c-4.48-0.01-6.97-1.92-6.93-5.32c0.04-3.39,2.49-5.19,7.05-5.2c2.78,0,5.57,0,8.68,0c0-3.3-0.02-6.42,0-9.54
		c0.03-3.82,2.06-6.22,5.24-6.22c3.18,0,5.22,2.4,5.25,6.21c0.02,3.06,0,6.12,0,9.55c2.1,0,4.07,0,6.05,0
		c7.16,0,9.63,1.33,9.68,5.19c0.05,3.92-2.54,5.33-9.81,5.33c-1.83,0-3.67,0-5.92,0c0,2.93-0.16,5.79,0.04,8.63
		c0.23,3.24-0.88,5.6-3.72,7.15C369.84,370.19,368.79,370.19,367.74,370.19z"/>
	<path class="st0" d="M306.23,201.87c3.17-0.05,5.24,2.31,5.35,6.13c0.28,9.8,3.45,18.55,9.78,26.03
		c8.25,9.75,18.84,14.78,31.62,15.17c3.56,0.11,5.9,2.28,5.83,5.38c-0.07,3-2.34,5-5.79,5.16c-1.74,0.08-3.49,0.21-5.22,0.44
		c-20.14,2.64-35.67,20-36.23,40.43c-0.03,1.2-0.18,2.48-0.65,3.56c-0.93,2.15-3.47,3.27-5.68,2.77c-2.45-0.56-3.78-2.59-4.21-5.36
		c-0.76-4.99-1.17-10.17-2.88-14.85c-5.82-15.99-21.06-26.54-38.08-27c-3.87-0.1-6.21-2.07-6.23-5.25c-0.02-3.18,2.33-5.19,6.18-5.3
		c22.6-0.63,40.33-18.47,41.04-41.27C301.17,204.22,303.14,201.92,306.23,201.87z"/>
	<path class="st0" d="M416.52,207.13c0,3.55,0.03,6.7-0.01,9.85c-0.04,3.57-2.2,5.94-5.29,5.91c-3.09-0.03-5.16-2.39-5.19-6
		c-0.03-3.14-0.01-6.28-0.01-9.76c-3.28,0-6.4,0.02-9.51,0c-3.82-0.03-6.21-2.05-6.22-5.24c-0.01-3.19,2.38-5.24,6.19-5.27
		c3.05-0.02,6.11,0,9.55,0c0-3.23-0.01-6.34,0-9.46c0.02-3.86,1.99-6.25,5.16-6.3c3.26-0.06,5.31,2.4,5.34,6.39
		c0.02,2.89,0.03,5.78,0.06,8.67c0,0.15,0.13,0.3,0.31,0.7c3.02,0,6.14-0.02,9.27,0.01c3.75,0.03,6.17,2.18,6.1,5.36
		c-0.07,3.09-2.43,5.11-6.05,5.15C423.07,207.15,419.94,207.13,416.52,207.13z"/>
	<path class="st0" d="M192.7,341.78c-3.49,0-6.63,0.03-9.76-0.01c-3.6-0.04-5.95-2.12-5.97-5.23c-0.02-3.1,2.34-5.23,5.91-5.28
		c3.06-0.04,6.12-0.04,9.18-0.06c0.08,0,0.16-0.04,0.64-0.17c0-2.99-0.01-6.11,0-9.22c0.02-3.86,1.98-6.25,5.15-6.31
		c3.26-0.06,5.32,2.4,5.34,6.38c0.02,3.04,0,6.09,0,9.38c3.37,0,6.5-0.02,9.62,0.01c3.75,0.03,6.17,2.17,6.1,5.35
		c-0.06,3.09-2.42,5.12-6.04,5.16c-3.13,0.03-6.26,0.01-9.69,0.01c0,3.33,0.02,6.46,0,9.58c-0.03,3.79-2.11,6.2-5.28,6.18
		c-3.18-0.03-5.18-2.42-5.21-6.26C192.68,348.23,192.7,345.18,192.7,341.78z"/>
	<path class="st0" d="M332.45,180.79c-2.9-0.04-5.27-2.55-5.16-5.44c0.11-2.8,2.5-5.08,5.3-5.04c2.9,0.04,5.28,2.55,5.16,5.44
		C337.64,178.55,335.24,180.83,332.45,180.79z"/>
	<path class="st0" d="M544.37,315.49c-2.9-0.02-5.29-2.51-5.19-5.41c0.09-2.8,2.47-5.09,5.26-5.07c2.9,0.02,5.29,2.51,5.2,5.4
		C549.54,313.22,547.16,315.51,544.37,315.49z"/>
	<path class="st0" d="M105.56,304.01c-0.04,2.9-2.55,5.29-5.43,5.17c-2.79-0.11-5.06-2.52-5.02-5.32c0.04-2.9,2.54-5.28,5.43-5.16
		C103.33,298.81,105.6,301.21,105.56,304.01z"/>
	<path class="st0" d="M495.26,223.02c-0.07,2.9-2.61,5.26-5.49,5.11c-2.79-0.14-5.04-2.57-4.97-5.37c0.07-2.9,2.59-5.26,5.48-5.11
		C493.07,217.8,495.33,220.22,495.26,223.02z"/>
	<path class="st0" d="M288.86,349.06c0.05,2.9-2.37,5.36-5.26,5.34c-2.8-0.02-5.14-2.34-5.2-5.15c-0.06-2.9,2.36-5.35,5.26-5.34
		C286.46,343.94,288.81,346.26,288.86,349.06z"/>
	<path class="st0" d="M427.13,264.99c2.8,0.06,5.11,2.42,5.12,5.22c0.01,2.9-2.45,5.33-5.34,5.27c-2.9-0.06-5.25-2.58-5.12-5.48
		C421.93,267.2,424.34,264.94,427.13,264.99z"/>
	<g>
		<path class="st0" d="M514.53,561.26c9.89-1.31,16.09-4.58,19.93-13.91c4.47-10.84,10.11-21.19,15.81-32.92
			c-134.27,9.96-246.82,62.31-339.7,156.98c0,0.81,0,1.63,0,2.44c14.69,3.38,29.35,6.93,44.12,9.93c2.13,0.43,5.19-1.34,7.15-2.92
			c14.67-11.84,28.6-24.68,43.84-35.73C368.23,599.77,437.85,571.44,514.53,561.26z"/>
		<path class="st0" d="M317.3,513.01c-1.87,1.1-3.81,2.07-5.73,3.08c-43.99,23.22-84.34,51.63-120.69,85.57
			c-14.03,13.1-27.22,27.11-41.75,41.67c13.86,7.6,26.29,14.42,39.06,21.43c2.56-2.78,4.57-5.04,6.66-7.23
			c77.62-81.08,171.35-133.14,281.52-154.76c24.39-4.79,49.43-6.19,74.15-9.33c2.42-0.31,6.36-1.44,6.74-2.92
			c3.31-12.93,5.96-26.03,9-39.94c-3.53,0-5.65-0.05-7.76,0.01c-32.18,0.84-64.01,4.76-95.53,11.18
			c-35.78,7.29-70.46,18.19-104.26,31.96c-7.62,3.1-13.63,0.98-15.93-5c-2.36-6.12,0.56-11.56,8.06-14.65
			c64.15-26.44,130.79-41.65,200.19-44.45c5.34-0.22,10.68-0.62,15.39-0.9v-42.18c-90.25,1.76-175.12,21.45-255.78,58.92
			c-80.7,37.48-150.37,89.88-209.67,157.1c10.56,9.62,20.64,18.82,31.23,28.46c2.07-2.13,3.46-3.47,4.74-4.9
			c42.01-46.97,90.3-86.22,144.79-117.84c8.43-4.9,17.04-9.52,25.68-14.04c6.8-3.56,12.77-2.03,15.76,3.63
			C326.11,503.42,323.92,509.12,317.3,513.01z"/>
		<path class="st0" d="M214.8,417.45c-24.24-7.87-48.86-14.4-73.95-19.25c-34.78-6.73-69.85-10.85-105.3-11.65
			c-4.11-0.09-5.83,0.87-5.94,5.24c-0.26,9.72-1,19.42-1.58,29.65c10.19,0.59,19.64,1.14,29.1,1.69
			c43.48,2.56,86.11,10.06,127.83,22.48c3.8,1.13,8.24,4.64,9.72,8.16c2.97,7.09-3.4,13.91-11.34,12.82
			c-5.12-0.71-10.15-2.22-15.16-3.6c-44.14-12.18-89.2-18.03-134.86-19.82c-1.03-0.04-2.07,0.11-4,0.22
			c1.91,11.92,3.75,23.38,5.6,34.94c14.62,1.2,28.69,1.89,42.64,3.63c17.2,2.16,34.31,5.04,51.4,7.94
			c6.87,1.16,10.64,6.62,9.54,12.5c-1.13,6.05-6.01,9.3-13.3,8.27c-19.31-2.74-38.57-5.86-57.9-8.47
			c-8.35-1.12-16.82-1.35-26.66-2.09c5.02,12.07,9.54,23.25,14.4,34.27c0.57,1.29,2.97,2.21,4.66,2.47
			c5.35,0.84,10.78,1.16,16.15,1.91c8.32,1.16,12.25,5.3,11.59,11.92c-0.62,6.18-5.42,9.51-13.31,9.23
			c-1.27-0.04-2.55-0.01-5.46-0.01c6.38,9.09,12.1,17.26,18.25,26.03c54.56-60.52,116.22-108.86,185.18-145.17
			C253.07,431.51,233.76,423.82,214.8,417.45z"/>
		<path class="st0" d="M451.28,638.83c14.41-11.99,28.85-23.94,42.88-36.35c0.91-0.81,1.79-1.66,2.65-2.53
			c1.37-1.46,2.64-2.84,3.81-4.14c3.21-3.72,6.26-7.72,9.63-11.59c-46.79-4.04-177.46,56.4-222.44,102.78
			C358.93,689.31,413.82,664.6,451.28,638.83z"/>
	</g>
</g>
</svg>
